<svg width="14" height="18" viewBox="0 0 14 18" fill="none" xmlns="http://www.w3.org/2000/svg">
<path d="M8.37609 0L8.00799 1.7244C4.38459 1.7829 2.07879 3.5073 2.07879 6.2199C2.07879 8.0991 3.12549 9.1845 5.56629 9.8046C6.37989 10.0179 7.34919 10.2114 8.00799 10.386C9.42279 10.7541 9.96459 11.2194 9.96459 12.033C9.96459 13.176 8.74419 13.8735 6.80649 13.8735C4.84989 13.8735 3.28029 12.9051 2.54409 11.2383L0.122192 12.4011C0.935792 14.3388 2.71869 15.6951 4.96599 16.1604L4.57809 18.0009H6.49599L6.84519 16.335C10.5847 16.2963 12.9877 14.4747 12.9877 11.6658C12.9877 9.7281 11.7862 8.5464 9.15099 7.8876C8.22129 7.6554 7.58139 7.5582 6.84519 7.3836C5.56629 7.074 5.08209 6.6861 5.08209 5.9688C5.08209 4.8447 6.18639 4.167 8.04669 4.167C9.57759 4.167 10.8367 4.8645 11.7088 6.201L13.8787 4.6701C12.9877 3.2553 11.5729 2.2869 9.88719 1.9188L10.294 0.0009H8.37609V0Z" fill="white"/>
</svg>
